<?xml version="1.0" standalone="no"?>
<!DOCTYPE svg PUBLIC "-//W3C//DTD SVG 20010904//EN"
 "http://www.w3.org/TR/2001/REC-SVG-20010904/DTD/svg10.dtd">
<svg version="1.0" xmlns="http://www.w3.org/2000/svg"
 width="376.000000pt" height="351.000000pt" viewBox="0 0 376.000000 351.000000"
 preserveAspectRatio="xMidYMid meet">

<g transform="translate(0.000000,351.000000) scale(0.100000,-0.100000)"
fill="#000000" stroke="none">
<path d="M2109 3094 c-13 -14 -32 -30 -43 -36 -17 -9 -18 -7 -12 16 8 31 5 31
-69 6 -72 -25 -103 -27 -85 -5 9 11 9 15 1 15 -18 0 -138 -56 -172 -81 -35
-24 -46 -20 -29 11 11 20 10 21 -11 10 -12 -7 -41 -30 -64 -51 -26 -24 -49
-37 -57 -34 -19 8 -48 -60 -48 -110 0 -37 -8 -43 -28 -23 -9 9 -11 -29 -7
-173 3 -101 8 -206 11 -232 4 -30 2 -53 -6 -61 -7 -10 -8 -16 0 -21 13 -8 13
-45 0 -45 -6 0 -4 -10 4 -22 8 -13 19 -50 25 -83 5 -33 12 -72 16 -87 10 -38
-10 -36 -55 5 l-35 32 34 -37 c19 -21 42 -40 52 -43 9 -3 22 -25 29 -51 22
-78 20 -42 -6 85 -22 113 -23 132 -14 239 21 237 34 293 80 337 40 39 103 44
203 16 85 -23 132 -26 172 -11 15 6 81 12 146 15 l120 4 24 -38 c14 -21 30
-64 36 -97 6 -32 17 -81 25 -108 27 -95 5 -354 -41 -487 -8 -22 -11 -37 -6
-35 4 3 16 33 25 66 9 33 22 60 27 60 6 0 8 4 4 9 -9 16 21 179 39 206 9 14
12 25 6 25 -13 0 -13 37 0 45 7 5 8 11 1 19 -7 8 -7 67 0 176 6 91 8 179 4
195 -3 20 2 44 15 70 20 39 12 61 -13 36 -21 -21 -27 -11 -27 43 0 30 -5 67
-12 83 l-12 28 -4 -27 c-4 -34 -19 -36 -27 -5 -4 13 -28 42 -55 65 -40 35 -49
39 -53 24 -3 -12 -7 -9 -17 16 -13 35 -25 41 -34 17 -10 -28 -29 -17 -23 15 8
39 -5 45 -34 14z"/>
<path d="M930 2432 c-22 -22 -40 -45 -40 -53 0 -8 9 1 20 19 12 19 38 41 63
52 30 14 36 20 20 20 -12 0 -40 -17 -63 -38z"/>
<path d="M1063 2460 c36 -11 55 -27 79 -65 10 -16 18 -24 18 -16 0 23 -76 91
-101 90 -22 -1 -22 -1 4 -9z"/>
<path d="M1590 2420 c-34 -34 -26 -49 21 -39 27 6 68 6 118 -2 164 -24 161
-24 161 -2 0 25 -32 39 -120 53 -104 16 -157 13 -180 -10z"/>
<path d="M2120 2429 c-76 -13 -110 -28 -110 -50 0 -23 10 -24 137 -3 71 11
110 12 141 6 48 -11 55 0 22 36 -17 18 -31 22 -78 21 -31 -1 -82 -5 -112 -10z"/>
<path d="M2785 2425 c-40 -14 -118 -91 -131 -129 -3 -10 -2 -28 4 -40 6 -11
20 -42 32 -69 29 -62 86 -97 156 -97 63 1 104 23 154 84 39 47 49 82 31 102
-5 5 -14 25 -20 46 -16 49 -35 54 -51 12 -10 -26 -20 -34 -39 -35 -16 -1 -9
-5 19 -10 83 -16 90 -19 90 -38 0 -36 -12 -51 -39 -51 -34 0 -308 47 -321 55
-14 9 -13 38 3 59 12 16 18 16 110 1 54 -10 100 -15 103 -12 3 2 -16 8 -41 11
-50 8 -52 27 -2 23 30 -2 32 0 30 29 -4 46 19 62 54 38 24 -15 26 -15 14 -1
-13 16 -71 37 -101 37 -8 -1 -33 -7 -55 -15z m81 -37 c-2 -41 -4 -43 -33 -40
-19 2 -32 -2 -36 -11 -4 -11 -15 -13 -47 -7 -22 4 -43 10 -46 13 -10 9 58 67
89 76 67 19 75 16 73 -31z m141 -95 c-9 -9 -47 8 -47 21 0 6 5 17 12 24 10 10
15 7 26 -14 7 -14 11 -28 9 -31z m-47 -103 c2 0 -1 -5 -8 -12 -7 -7 -12 -22
-12 -34 0 -30 -24 -37 -46 -13 -9 10 -25 19 -34 19 -10 0 -23 7 -30 15 -8 9
-21 13 -36 9 -18 -5 -24 -2 -24 10 0 25 -28 31 -50 11 -19 -17 -20 -17 -29 6
-5 13 -7 27 -5 30 2 3 63 -5 136 -17 73 -13 135 -23 138 -24z m-200 -11 c0
-15 6 -20 23 -18 12 2 32 -2 44 -9 12 -7 28 -12 35 -12 7 0 19 -9 26 -20 12
-19 10 -20 -38 -20 -55 0 -94 15 -124 49 -15 17 -16 23 -6 36 18 22 40 19 40
-6z m214 -20 c-12 -13 -20 -16 -22 -9 -3 7 2 16 9 21 25 16 32 9 13 -12z"/>
<path d="M882 2335 c0 -16 2 -22 5 -12 2 9 2 23 0 30 -3 6 -5 -1 -5 -18z"/>
<path d="M1162 2325 c0 -16 2 -22 5 -12 2 9 2 23 0 30 -3 6 -5 -1 -5 -18z"/>
<path d="M1427 2332 c-10 -10 -17 -27 -16 -38 1 -14 3 -13 8 6 4 14 18 30 31
37 16 8 19 13 9 13 -9 0 -23 -8 -32 -18z"/>
<path d="M2435 2343 c11 -3 26 -12 33 -21 6 -9 12 -11 12 -6 0 17 -23 34 -44
33 -21 -1 -21 -1 -1 -6z"/>
<path d="M1623 2310 c-13 -5 -23 -17 -23 -27 0 -13 3 -14 12 -5 7 7 22 12 35
12 19 0 23 -5 23 -28 0 -63 85 -95 128 -49 12 13 22 29 22 35 0 16 10 15 32
-5 10 -9 18 -12 18 -6 0 17 -42 55 -76 69 -37 16 -137 18 -171 4z m107 -19 c0
-12 -20 -25 -27 -18 -7 7 6 27 18 27 5 0 9 -4 9 -9z"/>
<path d="M2110 2309 c-30 -12 -58 -37 -72 -64 l-11 -20 23 20 c19 16 24 17 28
6 16 -46 72 -72 117 -55 21 8 46 59 39 78 -8 20 36 22 54 4 9 -9 12 -8 12 5 0
10 -12 22 -26 27 -32 13 -131 12 -164 -1z m35 -29 c-3 -5 -10 -10 -16 -10 -5
0 -9 5 -9 10 0 6 7 10 16 10 8 0 12 -4 9 -10z"/>
<path d="M2483 2260 c0 -25 2 -35 4 -22 2 12 2 32 0 45 -2 12 -4 2 -4 -23z"/>
<path d="M2741 2295 c0 -18 18 -51 18 -35 1 13 2 13 11 0 9 -13 11 -13 20 0
13 19 13 33 0 25 -5 -3 -10 -1 -10 6 0 9 -3 9 -14 0 -11 -9 -15 -9 -19 1 -3 7
-5 9 -6 3z"/>
<path d="M1146 2268 c-3 -13 -5 -32 -5 -43 1 -11 5 -2 10 19 10 42 6 62 -5 24z"/>
<path d="M2820 2266 c0 -24 2 -27 15 -16 10 9 15 9 15 1 0 -18 17 -13 23 8 3
14 -1 18 -17 17 -11 -1 -24 3 -28 9 -4 5 -8 -3 -8 -19z"/>
<path d="M2900 2249 c0 -12 5 -16 15 -13 9 4 15 0 15 -7 0 -11 3 -11 10 1 13
20 13 33 0 25 -5 -3 -10 -2 -10 3 0 5 -7 9 -15 9 -8 0 -15 -8 -15 -18z"/>
<path d="M920 2236 c8 -10 31 -29 51 -42 34 -21 89 -98 89 -125 0 -7 7 -21 16
-31 15 -16 18 -16 28 -2 6 8 27 17 46 19 33 4 34 3 16 -10 -11 -8 -15 -15 -8
-15 6 0 19 11 28 25 15 23 15 27 -4 64 -11 21 -18 42 -14 47 4 4 2 4 -5 0 -7
-4 -10 -13 -7 -20 6 -16 -20 -38 -49 -40 -12 -1 -21 -7 -20 -14 4 -19 -17 -14
-24 6 -9 22 -21 37 -59 76 -42 41 -104 87 -84 62z m241 -129 c-6 -8 -7 -18 -3
-22 4 -5 -2 -5 -13 -1 -15 5 -17 4 -8 -5 13 -13 37 -3 28 12 -4 5 -1 9 4 9 12
0 15 -29 4 -31 -5 -1 -17 -3 -28 -4 -12 -1 -30 -7 -42 -13 -18 -10 -21 -9 -18
6 2 9 4 19 5 22 1 3 2 9 1 14 -1 5 5 6 13 3 8 -3 22 1 33 8 23 18 39 19 24 2z"/>
<path d="M1100 2070 c-9 -6 -10 -10 -3 -10 6 0 15 5 18 10 8 12 4 12 -15 0z"/>
<path d="M1411 2222 c-1 -24 24 -92 34 -92 3 0 1 9 -5 19 -5 11 -14 37 -19 58
-6 24 -9 30 -10 15z"/>
<path d="M2471 2203 c-1 -6 -4 -20 -7 -30 -5 -17 -5 -17 6 0 6 10 9 23 6 30
-3 9 -5 9 -5 0z"/>
<path d="M1115 2020 c-3 -5 1 -10 9 -10 9 0 16 5 16 10 0 6 -4 10 -9 10 -6 0
-13 -4 -16 -10z"/>
<path d="M1580 1925 c0 -8 4 -15 10 -15 5 0 7 7 4 15 -4 8 -8 15 -10 15 -2 0
-4 -7 -4 -15z"/>
<path d="M1625 1873 c16 -18 25 -33 21 -33 -5 0 -3 -7 4 -15 7 -8 16 -13 20
-10 13 8 41 -31 34 -49 -5 -12 0 -19 15 -23 11 -3 21 -9 21 -13 0 -4 11 -24
25 -45 15 -20 25 -38 23 -39 -77 -37 -122 -56 -138 -56 -36 0 -126 -40 -152
-68 -14 -15 -38 -51 -52 -79 -15 -29 -31 -53 -36 -53 -6 0 -10 -6 -10 -13 0
-7 -9 -20 -20 -30 -21 -18 -27 -52 -10 -62 6 -4 -1 -26 -16 -56 l-27 -50 31
-43 30 -42 -14 -69 c-8 -38 -19 -72 -25 -76 -8 -4 -8 -9 -1 -13 7 -4 7 -17 1
-39 -5 -17 -9 -41 -8 -52 1 -26 13 14 40 129 11 49 22 92 24 97 3 4 29 -6 59
-22 52 -28 54 -31 61 -82 5 -28 9 -97 10 -152 1 -55 5 -107 9 -115 3 -8 5 -37
4 -64 l-3 -50 90 -4 c50 -2 87 -1 83 3 -3 4 -37 14 -74 24 -37 9 -69 22 -72
29 -5 17 19 15 118 -9 53 -13 137 -22 225 -26 121 -4 154 -2 245 17 149 32
160 34 160 22 0 -6 -26 -19 -57 -28 -85 -26 -84 -32 4 -30 l78 1 -3 50 c-1 28
-5 74 -8 103 -4 43 -3 52 10 52 13 0 16 15 16 94 0 52 3 101 6 110 7 18 121
79 134 71 4 -3 14 -38 20 -78 7 -39 19 -90 27 -112 9 -22 19 -96 23 -165 l8
-125 -2 149 c-2 81 -7 151 -12 155 -14 10 -43 162 -37 196 3 17 15 40 26 52
17 20 19 26 8 49 -8 18 -8 30 -1 39 7 8 2 19 -20 38 -16 15 -35 47 -43 74 -26
85 -63 158 -95 185 -17 14 -62 36 -99 48 -102 32 -192 73 -193 88 0 6 4 12 9
12 5 0 22 26 37 58 15 31 52 84 83 117 l56 60 -56 -53 -56 -54 -8 29 -7 28
-21 -26 c-12 -15 -30 -41 -39 -58 -10 -18 -22 -30 -27 -26 -6 3 -13 -1 -18 -9
-13 -22 -101 -58 -126 -51 -69 20 -137 62 -154 95 -10 19 -26 43 -35 53 -17
17 -18 16 -24 -8 -3 -14 -9 -25 -12 -25 -4 0 -31 24 -62 53 -30 28 -42 37 -25
20z m459 -285 c-47 -51 -151 -74 -219 -48 -26 10 -75 56 -75 71 0 18 22 8 46
-21 55 -64 146 -62 220 5 39 36 61 31 28 -7z m-186 2 c40 -25 41 -31 2 -20
-37 11 -50 19 -50 31 0 14 11 11 48 -11z m118 -5 c-11 -8 -25 -15 -30 -15 -6
0 -2 7 8 15 11 8 25 15 30 15 6 0 2 -7 -8 -15z m-266 -40 c0 -12 -14 -15 -67
-15 -38 0 -85 -4 -105 -9 -21 -5 -38 -5 -38 -1 0 17 79 39 143 39 53 1 67 -2
67 -14z m580 -10 c43 -22 34 -27 -30 -15 -29 5 -77 10 -106 10 -51 0 -64 7
-46 24 12 13 147 -1 182 -19z m97 -86 c15 -13 18 -49 3 -49 -5 0 -10 6 -10 13
0 19 -184 27 -606 27 -308 0 -333 -1 -337 -17 -4 -15 -5 -14 -6 3 -2 46 -4 46
483 39 311 -4 464 -9 473 -16z m-927 -84 c0 -8 -4 -15 -10 -15 -5 0 -10 7 -10
15 0 8 5 15 10 15 6 0 10 -7 10 -15z m613 5 c233 0 257 -2 257 -17 0 -15 -33
-16 -416 -10 -229 3 -419 8 -421 11 -3 3 -2 10 3 17 5 9 45 10 163 6 86 -4
272 -7 414 -7z m307 -15 c0 -8 -4 -15 -10 -15 -5 0 -10 7 -10 15 0 8 5 15 10
15 6 0 10 -7 10 -15z m-970 -59 c6 -19 19 -36 30 -39 13 -3 20 -14 20 -29 0
-21 -4 -20 -40 19 -22 23 -40 51 -40 63 0 31 17 24 30 -14z m370 7 c0 -24 4
-28 30 -29 20 -1 30 4 30 13 0 8 -4 12 -9 9 -5 -3 -11 3 -14 14 -3 11 -1 20 4
20 5 0 9 -6 9 -12 0 -9 4 -8 10 2 8 12 10 9 10 -12 0 -16 4 -28 9 -28 15 0 23
18 11 25 -26 16 -4 24 60 24 66 -1 68 -2 57 -20 -10 -16 -9 -21 3 -29 22 -14
28 -12 26 7 -1 12 7 19 24 21 19 2 22 1 10 -7 -8 -5 -18 -7 -24 -4 -5 4 -6 1
-2 -6 5 -7 14 -10 22 -7 8 3 14 1 14 -4 0 -6 53 -10 131 -10 100 0 130 -3 127
-12 -4 -10 -70 -14 -274 -16 -326 -4 -557 5 -551 22 2 7 45 12 125 14 111 2
140 10 112 27 -16 10 -1 25 26 25 20 0 24 -5 24 -27z m273 20 c-7 -2 -19 -2
-25 0 -7 3 -2 5 12 5 14 0 19 -2 13 -5z m382 -42 c-19 -36 -82 -95 -89 -83 -8
13 32 62 50 62 8 0 14 4 14 9 0 5 5 22 11 38 8 21 12 24 19 13 5 -8 3 -24 -5
-39z m-965 -132 c0 -17 -27 -9 -66 19 -49 36 -68 58 -59 71 6 11 125 -74 125
-90z m1010 77 c0 -29 -120 -109 -137 -92 -5 5 1 14 12 22 11 8 40 30 65 49 50
38 60 41 60 21z m-176 -67 c6 -5 3 -11 -7 -15 -24 -9 -784 0 -793 9 -5 4 -3
11 3 15 17 11 786 2 797 -9z m-907 -44 c40 -22 73 -46 73 -52 0 -7 -4 -13 -8
-13 -11 0 -152 99 -152 106 0 7 1 7 87 -41z m1088 10 c-39 -33 -126 -85 -143
-85 -29 0 -3 23 73 65 92 50 113 56 70 20z m-483 -59 c164 0 298 -4 298 -9 0
-19 -66 -27 -238 -27 -209 0 -504 18 -542 32 -44 18 3 25 98 15 48 -5 221 -10
384 -11z m-307 -96 c196 -36 465 -37 578 -4 33 10 17 -16 -20 -33 -60 -27
-386 -24 -553 5 -143 26 -190 39 -190 54 0 11 6 11 185 -22z m52 -80 c233 -46
373 -51 506 -15 43 12 32 -11 -15 -30 -62 -25 -208 -31 -299 -12 -68 14 -167
27 -341 42 -37 4 -70 11 -73 16 -8 12 160 12 222 -1z m527 -71 c-11 -18 -99
-57 -157 -69 -64 -13 -156 -5 -200 17 -44 22 -27 26 62 12 92 -14 152 -5 236
35 47 23 72 25 59 5z m-445 -20 c54 -24 51 -30 -9 -19 -25 4 -100 11 -167 15
-68 4 -123 11 -123 16 0 13 30 15 145 11 81 -2 122 -8 154 -23z m58 -90 c66
-11 107 -11 208 -1 69 7 131 15 138 17 15 6 44 -11 35 -21 -10 -10 -214 -33
-293 -33 -38 0 -88 4 -110 9 -22 5 -101 12 -175 16 -150 6 -164 9 -154 25 9
14 229 6 351 -12z"/>
<path d="M1941 1304 c0 -11 3 -14 6 -6 3 7 2 16 -1 19 -3 4 -6 -2 -5 -13z"/>
<path d="M1986 1307 c-14 -10 -16 -16 -7 -22 15 -9 35 8 30 24 -3 8 -10 7 -23
-2z"/>
<path d="M1880 1805 c0 -16 47 -55 67 -55 16 0 68 49 60 57 -3 3 -19 1 -35 -5
-21 -7 -37 -6 -60 4 -27 11 -32 11 -32 -1z"/>
<path d="M2792 1648 c-10 -29 -36 -105 -57 -168 -21 -63 -42 -118 -47 -121 -5
-3 -5 -16 0 -28 6 -18 28 -30 97 -52 49 -16 92 -26 96 -21 11 11 127 366 123
374 -2 3 -41 19 -87 34 -45 15 -87 29 -94 31 -6 3 -20 -19 -31 -49z m111 -37
c37 -13 67 -28 67 -35 0 -18 -79 -249 -88 -258 -11 -11 -162 41 -162 56 0 13
77 242 86 258 3 5 11 7 18 5 6 -2 41 -14 79 -26z m-93 -301 c0 -5 -5 -12 -11
-16 -14 -8 -33 11 -25 25 7 11 36 4 36 -9z"/>
<path d="M1033 1646 c-67 -6 -124 -14 -128 -18 -3 -3 -2 -48 3 -99 8 -83 6
-99 -11 -142 -11 -26 -17 -50 -14 -53 3 -4 55 -3 114 2 69 6 92 10 64 12 -37
3 -42 6 -38 23 3 10 2 19 -2 19 -4 0 -16 6 -27 14 -21 16 0 17 25 2 10 -7 12
-5 6 5 -5 8 0 7 12 -3 11 -10 30 -18 42 -18 15 0 25 -7 28 -21 6 -20 11 -21
76 -16 38 3 71 8 74 11 5 4 -47 89 -58 94 -3 1 -4 15 -2 30 3 17 1 22 -4 15
-7 -10 -262 -39 -268 -31 -1 2 -5 35 -9 74 l-6 72 63 6 c34 3 95 9 135 12 l72
7 1 -34 c1 -19 5 -45 9 -59 l8 -25 3 25 c9 83 0 111 -36 108 -5 -1 -65 -6
-132 -12z m117 -201 c-11 -13 -15 -13 -23 -3 -6 9 -7 8 -3 -4 3 -10 2 -18 -3
-18 -5 0 -11 9 -14 20 -4 17 0 20 25 20 26 0 29 -2 18 -15z m-188 -13 c3 -11
0 -19 -8 -19 -7 0 -15 9 -17 19 -3 10 0 18 8 18 7 0 15 -8 17 -18z m93 11
c-11 -3 -25 -9 -32 -15 -7 -5 -13 -5 -17 1 -7 12 11 20 44 19 20 0 21 -1 5 -5z
m142 0 c-4 -3 1 -12 11 -19 9 -7 13 -16 9 -21 -5 -4 -15 1 -23 11 -17 24 -18
36 -2 36 6 0 8 -3 5 -7z m-60 -29 c8 3 11 1 8 -4 -11 -18 -75 -8 -75 11 0 5
12 4 27 -2 14 -5 33 -7 40 -5z m-168 -30 c2 -2 -7 -4 -22 -4 -14 0 -28 4 -32
9 -5 9 45 5 54 -5z"/>
<path d="M794 1538 c-4 -6 -3 -8 4 -4 5 3 12 1 14 -6 3 -8 6 -9 11 -1 4 6 0
13 -8 17 -8 3 -17 0 -21 -6z"/>
<path d="M852 1509 c2 -7 10 -15 17 -17 8 -3 12 1 9 9 -2 7 -10 15 -17 17 -8
3 -12 -1 -9 -9z"/>
<path d="M1331 703 c0 -62 3 -113 7 -113 4 0 6 44 4 98 -5 139 -9 145 -11 15z"/>
<path d="M1506 646 c-3 -13 -9 -32 -12 -43 -5 -12 -4 -15 3 -8 11 10 28 75 20
75 -3 0 -8 -11 -11 -24z"/>
<path d="M2391 660 c0 -14 28 -72 29 -59 0 4 -7 22 -15 40 -8 19 -14 27 -14
19z"/>
</g>
</svg>
